# xmcd
#
# Track frame offsets: 
#        150
#        24749
#        46090
#        69821
#        93893
#        111615
#        137868
#        159529
#        173702
#        198622
#        214112
#        242235
#        265576
#        284940
#        297253
#
# Disc length: 4193 seconds
#
# Revision: 7
# Processed by: cddbd v1.5.2PL0 Copyright (c) Steve Scherf et al.
# Submitted via: ExactAudioCopyFreeDBPlugin 1.0
#
DISCID=e6105f0f
DTITLE=John Lee Hooker - Face to Face
DYEAR=2003
DGENRE=Blues
TTITLE0=Big Road
TTITLE1=Dimples
TTITLE2=Loving People
TTITLE3=Face To Face
TTITLE4=Funky Mabel
TTITLE5=It Serves Me Right To Suffer
TTITLE6=Up And Down
TTITLE7=Mad Man Blues
TTITLE8=Six Page Letter
TTITLE9=Stop Jivin' Me
TTITLE10=Mean Mean World
TTITLE11=Turn Over A New Leaf
TTITLE12=Wednesday Evening Blues
TTITLE13=Boogie Chillen'
TTITLE14=Rock These Blues Away
EXTD=
EXTT0=
EXTT1=
EXTT2=
EXTT3=
EXTT4=
EXTT5=
EXTT6=
EXTT7=
EXTT8=
EXTT9=
EXTT10=
EXTT11=
EXTT12=
EXTT13=
EXTT14=
PLAYORDER=
